<svg width="64" height="58" viewBox="0 0 64 58" fill="none" xmlns="http://www.w3.org/2000/svg">
<path d="M58.6667 0H5.33333C2.38889 0 0 2.78348 0 6.21429V51.7857C0 55.2165 2.38889 58 5.33333 58H58.6667C61.6111 58 64 55.2165 64 51.7857V6.21429C64 2.78348 61.6111 0 58.6667 0ZM19.5556 12.4286C23.4778 12.4286 26.6667 16.1442 26.6667 20.7143C26.6667 25.2844 23.4778 29 19.5556 29C15.6333 29 12.4444 25.2844 12.4444 20.7143C12.4444 16.1442 15.6333 12.4286 19.5556 12.4286ZM32 43.0857C32 44.458 30.8889 45.5714 29.5111 45.5714H9.6C8.22222 45.5714 7.11111 44.458 7.11111 43.0857V40.6C7.11111 36.483 10.4556 33.1429 14.5778 33.1429H15.1333C16.5 33.8031 17.9889 34.1786 19.5556 34.1786C21.1222 34.1786 22.6222 33.8031 23.9778 33.1429H24.5333C28.6556 33.1429 32 36.483 32 40.6V43.0857ZM56.8889 36.25C56.8889 36.8196 56.4889 37.2857 56 37.2857H40C39.5111 37.2857 39.1111 36.8196 39.1111 36.25V34.1786C39.1111 33.6089 39.5111 33.1429 40 33.1429H56C56.4889 33.1429 56.8889 33.6089 56.8889 34.1786V36.25ZM56.8889 27.9643C56.8889 28.5339 56.4889 29 56 29H40C39.5111 29 39.1111 28.5339 39.1111 27.9643V25.8929C39.1111 25.3232 39.5111 24.8571 40 24.8571H56C56.4889 24.8571 56.8889 25.3232 56.8889 25.8929V27.9643ZM56.8889 19.6786C56.8889 20.2482 56.4889 20.7143 56 20.7143H40C39.5111 20.7143 39.1111 20.2482 39.1111 19.6786V17.6071C39.1111 17.0375 39.5111 16.5714 40 16.5714H56C56.4889 16.5714 56.8889 17.0375 56.8889 17.6071V19.6786Z" fill="#603BF5"/>
</svg>
