<svg width="24" height="20" viewBox="0 0 24 20" fill="none" xmlns="http://www.w3.org/2000/svg">
<path d="M7.5 11.25H5.625C5.27969 11.25 5 11.5297 5 11.875V19.375C5 19.7203 5.27969 20 5.625 20H7.5C7.84531 20 8.125 19.7203 8.125 19.375V11.875C8.125 11.5297 7.84531 11.25 7.5 11.25ZM2.5 15H0.625C0.279687 15 0 15.2797 0 15.625V19.375C0 19.7203 0.279687 20 0.625 20H2.5C2.84531 20 3.125 19.7203 3.125 19.375V15.625C3.125 15.2797 2.84531 15 2.5 15ZM12.5 7.5H10.625C10.2797 7.5 10 7.77969 10 8.125V19.375C10 19.7203 10.2797 20 10.625 20H12.5C12.8453 20 13.125 19.7203 13.125 19.375V8.125C13.125 7.77969 12.8453 7.5 12.5 7.5ZM17.5 3.75H15.625C15.2797 3.75 15 4.02969 15 4.375V19.375C15 19.7203 15.2797 20 15.625 20H17.5C17.8453 20 18.125 19.7203 18.125 19.375V4.375C18.125 4.02969 17.8453 3.75 17.5 3.75ZM22.5 0H20.625C20.2797 0 20 0.279687 20 0.625V19.375C20 19.7203 20.2797 20 20.625 20H22.5C22.8453 20 23.125 19.7203 23.125 19.375V0.625C23.125 0.279687 22.8453 0 22.5 0Z" fill="black"/>
</svg>
