<svg width="66" height="67" viewBox="0 0 66 67" fill="none" xmlns="http://www.w3.org/2000/svg">
<path d="M60.5 0H5.5C2.46354 0 0 3.2154 0 7.17857V59.8214C0 63.7846 2.46354 67 5.5 67H60.5C63.5365 67 66 63.7846 66 59.8214V7.17857C66 3.2154 63.5365 0 60.5 0ZM20.1667 14.3571C24.2115 14.3571 27.5 18.6493 27.5 23.9286C27.5 29.2078 24.2115 33.5 20.1667 33.5C16.1219 33.5 12.8333 29.2078 12.8333 23.9286C12.8333 18.6493 16.1219 14.3571 20.1667 14.3571ZM33 49.7714C33 51.3567 31.8542 52.6429 30.4333 52.6429H9.9C8.47917 52.6429 7.33333 51.3567 7.33333 49.7714V46.9C7.33333 42.1442 10.7823 38.2857 15.0333 38.2857H15.6062C17.0156 39.0484 18.551 39.4821 20.1667 39.4821C21.7823 39.4821 23.3292 39.0484 24.7271 38.2857H25.3C29.551 38.2857 33 42.1442 33 46.9V49.7714ZM58.6667 41.875C58.6667 42.533 58.2542 43.0714 57.75 43.0714H41.25C40.7458 43.0714 40.3333 42.533 40.3333 41.875V39.4821C40.3333 38.8241 40.7458 38.2857 41.25 38.2857H57.75C58.2542 38.2857 58.6667 38.8241 58.6667 39.4821V41.875ZM58.6667 32.3036C58.6667 32.9616 58.2542 33.5 57.75 33.5H41.25C40.7458 33.5 40.3333 32.9616 40.3333 32.3036V29.9107C40.3333 29.2527 40.7458 28.7143 41.25 28.7143H57.75C58.2542 28.7143 58.6667 29.2527 58.6667 29.9107V32.3036ZM58.6667 22.7321C58.6667 23.3902 58.2542 23.9286 57.75 23.9286H41.25C40.7458 23.9286 40.3333 23.3902 40.3333 22.7321V20.3393C40.3333 19.6812 40.7458 19.1429 41.25 19.1429H57.75C58.2542 19.1429 58.6667 19.6812 58.6667 20.3393V22.7321Z" fill="#603BF5"/>
</svg>
